<svg width="29" height="34" viewBox="0 0 29 34" fill="none" xmlns="http://www.w3.org/2000/svg">
<path fill-rule="evenodd" clip-rule="evenodd" d="M14.8241 1.58589C14.4453 1.50799 14.0547 1.50799 13.6759 1.58589C13.238 1.67594 12.8467 1.89514 12.5356 2.0694L12.4508 2.11678L1.90615 7.9749C1.877 7.99109 1.84696 8.00764 1.81618 8.02459C1.48683 8.206 1.07271 8.43409 0.754702 8.77918C0.479756 9.07753 0.271685 9.43115 0.144402 9.81639C-0.0028199 10.262 -0.00109744 10.7347 0.000272368 11.1107C0.000400417 11.1459 0.000525316 11.1802 0.000525316 11.2135V22.78C0.000525316 22.8133 0.000400417 22.8476 0.000272368 22.8828C-0.00109744 23.2588 -0.0028199 23.7315 0.144402 24.1771C0.271685 24.5624 0.479758 24.916 0.754702 25.2143C1.07272 25.5594 1.48683 25.7875 1.81618 25.9689C1.84696 25.9859 1.877 26.0024 1.90615 26.0186L12.4508 31.8767L12.5356 31.9241C12.8467 32.0984 13.238 32.3176 13.6759 32.4076C14.0547 32.4855 14.4453 32.4855 14.8241 32.4076C15.262 32.3176 15.6533 32.0984 15.9644 31.9241L16.0492 31.8767L26.5939 26.0186C26.6067 26.0115 26.6198 26.0042 26.633 25.9969C26.6497 25.9877 26.6666 25.9784 26.6838 25.9689C27.0132 25.7875 27.4273 25.5594 27.7453 25.2143C28.0202 24.916 28.2283 24.5624 28.3556 24.1771C28.5028 23.7315 28.5011 23.2588 28.4997 22.8828C28.4996 22.8476 28.4995 22.8133 28.4995 22.78V11.2135C28.4995 11.1802 28.4996 11.1459 28.4997 11.1108C28.5011 10.7347 28.5028 10.262 28.3556 9.81639C28.2283 9.43115 28.0202 9.07753 27.7453 8.77917C27.4273 8.43408 27.0132 8.20599 26.6838 8.02458L26.6827 8.02394C26.6523 8.00721 26.6226 7.99088 26.5939 7.97489L16.0492 2.11678L15.9644 2.0694C15.6533 1.89514 15.262 1.67594 14.8241 1.58589ZM13.8348 4.60803C14.0507 4.48807 14.161 4.42745 14.2432 4.38779L14.25 4.38453L14.2568 4.38779C14.339 4.42745 14.4493 4.48807 14.6652 4.60803L24.1403 9.87198L14.25 15.3666L4.35964 9.87201L13.8348 4.60803ZM2.85042 12.2937L12.825 17.8352L12.825 28.8245L3.29018 23.5274C3.06226 23.4007 2.94589 23.3354 2.86424 23.2834L2.85735 23.279L2.85683 23.2708C2.85101 23.1742 2.85042 23.0407 2.85042 22.78V12.2937Z" fill="#5856D6"/>
</svg>
